<svg width="86" height="115" viewBox="0 0 86 115" fill="none" xmlns="http://www.w3.org/2000/svg">
<path d="M1 60.9465L43 112.913L85 60.9465" stroke="#B7E93B" stroke-width="2"/>
<path d="M1 61.6583L21.6441 38.1667" stroke="#B7E93B" stroke-width="2"/>
<path d="M85 61.6583L64.3559 38.1667" stroke="#B7E93B" stroke-width="2"/>
<path fill-rule="evenodd" clip-rule="evenodd" d="M43.6499 43.7499C55.5466 43.7499 65.1908 33.9561 65.1908 21.8749C65.1908 9.79374 55.5466 0 43.6499 0C31.7531 0 22.1089 9.79374 22.1089 21.8749C22.1089 33.9561 31.7531 43.7499 43.6499 43.7499ZM30.6251 30.2242H56.5911C54.8656 32.3393 50.4604 36.3741 43.781 36.9752C41.1371 36.8917 34.232 35.7013 30.6251 30.2242ZM33.9442 13.3671H37.9442V23.3671H33.9442V13.3671ZM53.0272 13.3671H49.0272V23.3671H53.0272V13.3671Z" fill="url(#paint0_linear_295_1216)"/>
<g filter="url(#filter0_i_295_1216)">
<path d="M32.3292 75.5829C30.3977 72.5934 28.8798 68.933 28.5401 65.3557C28.1289 61.0231 31.2977 54.743 36.408 56.9786C39.4472 58.3077 41.7363 61.5463 42.3597 64.7857C41.8327 62.038 46.5514 57.7967 48.7902 56.9601C51.8212 55.8277 54.7041 57.0897 55.7615 60.2396C58.6443 68.8128 52.4308 78.1932 46.5549 83.8485C42.5319 87.7225 39.7445 84.2011 36.793 81.1131C35.156 79.4003 33.6202 77.5813 32.3292 75.5829Z" fill="#B7E93B"/>
</g>
<path d="M32.7492 75.3116L32.7492 75.3116C34.0176 77.275 35.5309 79.069 37.1545 80.7676L36.793 81.1131L37.1545 80.7677C37.3521 80.9745 37.5471 81.181 37.7403 81.3858C38.28 81.9577 38.8066 82.5157 39.3425 83.026C40.0683 83.717 40.7768 84.2859 41.4952 84.6441C42.2046 84.9978 42.911 85.1401 43.6538 84.9985C44.4037 84.8556 45.2484 84.4125 46.208 83.4884L46.2081 83.4883C49.115 80.6905 52.095 76.9802 53.9898 72.9265C55.8848 68.8723 56.674 64.5222 55.2875 60.399L55.2875 60.3987C54.7973 58.9386 53.899 57.9515 52.8067 57.4481C51.7122 56.9437 50.3737 56.9023 48.9653 57.4284C47.9475 57.8088 46.2709 59.0173 44.905 60.4956C44.228 61.2283 43.6493 62.0043 43.2735 62.7471C42.8937 63.4979 42.7487 64.1595 42.8508 64.6915L41.8687 64.8802C41.2715 61.777 39.0738 58.6901 36.2076 57.4367L36.2076 57.4367C35.0336 56.9231 34.0061 56.9101 33.1254 57.2086C32.2349 57.5105 31.4492 58.1466 30.8029 59.0048C29.5016 60.733 28.8436 63.2609 29.0379 65.3084C29.3681 68.7861 30.849 72.3706 32.7492 75.3116Z" stroke="#8AB02B"/>
<path fill-rule="evenodd" clip-rule="evenodd" d="M77.8815 59.7804C76.2437 55.1048 70.0203 44.9856 58.2285 41.9131C53.287 45.3919 40.4223 50.2623 28.4949 41.9131C23.2146 44.1395 11.773 50.83 8.24902 59.7804L43.0652 106.286L77.8815 59.7804ZM25.5494 64.1814C25.9618 68.4988 27.805 72.9166 30.1504 76.5246C31.718 78.9364 33.5829 81.1318 35.5708 83.199C35.8044 83.442 36.0372 83.6872 36.2697 83.932C39.6024 87.4421 42.8579 90.871 47.4244 86.5003C54.5595 79.6749 62.1045 68.3537 58.6039 58.0068C57.3199 54.2052 53.8193 52.6822 50.1388 54.0488C47.4202 55.0585 41.6904 60.1773 42.3303 63.4934C41.5733 59.5839 38.7937 55.6752 35.1032 54.0711C28.8978 51.3729 25.05 58.9525 25.5494 64.1814Z" fill="url(#paint1_linear_295_1216)"/>
<defs>
<filter id="filter0_i_295_1216" x="28.5044" y="46.5112" width="27.9854" height="39.0415" filterUnits="userSpaceOnUse" color-interpolation-filters="sRGB">
<feFlood flood-opacity="0" result="BackgroundImageFix"/>
<feBlend mode="normal" in="SourceGraphic" in2="BackgroundImageFix" result="shape"/>
<feColorMatrix in="SourceAlpha" type="matrix" values="0 0 0 0 0 0 0 0 0 0 0 0 0 0 0 0 0 0 127 0" result="hardAlpha"/>
<feOffset dy="-10"/>
<feGaussianBlur stdDeviation="5"/>
<feComposite in2="hardAlpha" operator="arithmetic" k2="-1" k3="1"/>
<feColorMatrix type="matrix" values="0 0 0 0 1 0 0 0 0 1 0 0 0 0 1 0 0 0 0.25 0"/>
<feBlend mode="normal" in2="shape" result="effect1_innerShadow_295_1216"/>
</filter>
<linearGradient id="paint0_linear_295_1216" x1="43.6499" y1="0" x2="43.6499" y2="122.277" gradientUnits="userSpaceOnUse">
<stop stop-color="#B7E93B"/>
<stop offset="1" stop-opacity="0"/>
</linearGradient>
<linearGradient id="paint1_linear_295_1216" x1="43.0652" y1="41.9131" x2="43.0652" y2="182.262" gradientUnits="userSpaceOnUse">
<stop stop-color="#B7E93B"/>
<stop offset="0.244329" stop-color="#8AB02D" stop-opacity="0.755671"/>
<stop offset="1" stop-opacity="0"/>
</linearGradient>
</defs>
</svg>
