<svg width="64" height="85" viewBox="0 0 64 85" fill="none" xmlns="http://www.w3.org/2000/svg">
<path d="M43.2402 30.9358C51.9437 33.2036 56.5371 40.6726 57.746 44.1236L32.0483 78.4488L6.35059 44.1236C8.95162 37.5174 17.3966 32.5791 21.294 30.9358C30.0975 37.0983 39.5929 33.5035 43.2402 30.9358Z" fill="url(#paint0_linear_295_1268)"/>
<path d="M1 44.9844L32 83.3403L63 44.9844" stroke="url(#paint1_linear_295_1268)" stroke-width="2"/>
<path d="M1 45.5096L16.2373 28.1707" stroke="url(#paint2_linear_295_1268)" stroke-width="2"/>
<path d="M63 45.5096L47.7627 28.1707" stroke="url(#paint3_linear_295_1268)" stroke-width="2"/>
<path fill-rule="evenodd" clip-rule="evenodd" d="M32.4796 32.2916C41.2605 32.2916 48.3789 25.0629 48.3789 16.1458C48.3789 7.22872 41.2605 0 32.4796 0C23.6987 0 16.5803 7.22872 16.5803 16.1458C16.5803 25.0629 23.6987 32.2916 32.4796 32.2916ZM22.8661 22.3083H42.0315C40.7579 23.8695 37.5064 26.8475 32.5764 27.2912C30.6249 27.2296 25.5283 26.3509 22.8661 22.3083ZM25.3161 9.86629H28.2684V17.2472H25.3161V9.86629ZM39.401 9.86629H36.4486V17.2472H39.401V9.86629Z" fill="url(#paint4_linear_295_1268)"/>
<defs>
<linearGradient id="paint0_linear_295_1268" x1="6.35059" y1="54.6923" x2="59.3378" y2="54.6923" gradientUnits="userSpaceOnUse">
<stop stop-color="#0000FF"/>
<stop offset="0.489583" stop-color="#3BD7E6"/>
<stop offset="1" stop-color="#B7E93B"/>
</linearGradient>
<linearGradient id="paint1_linear_295_1268" x1="1" y1="64.1623" x2="64.9204" y2="64.1623" gradientUnits="userSpaceOnUse">
<stop stop-color="#0000FF"/>
<stop offset="0.489583" stop-color="#3BD7E6"/>
<stop offset="1" stop-color="#B7E93B"/>
</linearGradient>
<linearGradient id="paint2_linear_295_1268" x1="1" y1="36.8401" x2="16.7092" y2="36.8401" gradientUnits="userSpaceOnUse">
<stop stop-color="#0000FF"/>
<stop offset="0.489583" stop-color="#3BD7E6"/>
<stop offset="1" stop-color="#B7E93B"/>
</linearGradient>
<linearGradient id="paint3_linear_295_1268" x1="63" y1="36.8401" x2="47.2908" y2="36.8401" gradientUnits="userSpaceOnUse">
<stop stop-color="#0000FF"/>
<stop offset="0.489583" stop-color="#3BD7E6"/>
<stop offset="1" stop-color="#B7E93B"/>
</linearGradient>
<linearGradient id="paint4_linear_295_1268" x1="16.5803" y1="16.1458" x2="49.3638" y2="16.1458" gradientUnits="userSpaceOnUse">
<stop stop-color="#0000FF"/>
<stop offset="0.489583" stop-color="#3BD7E6"/>
<stop offset="1" stop-color="#B7E93B"/>
</linearGradient>
</defs>
</svg>
