<?xml version="1.0" encoding="UTF-8"?>
<svg width="134px" height="37px" viewBox="0 0 134 37" version="1.1" xmlns="http://www.w3.org/2000/svg" xmlns:xlink="http://www.w3.org/1999/xlink">
    <title>download-on-the-app-store-apple-logo</title>
    <g id="Page-1" stroke="none" stroke-width="1" fill="none" fill-rule="evenodd">
        <g id="download-on-the-app-store-apple-logo" transform="translate(0.865042, 0.861443)" fill="#FFFFFF" fill-rule="nonzero">
            <path d="M21.097897,16.5065632 C21.0626043,12.5852355 24.30954,10.6774967 24.4580131,10.5886798 C22.6191376,7.90835561 19.7689413,7.54213791 18.7673566,7.51293783 C16.3735325,7.26108712 14.0515109,8.94495853 12.8320845,8.94495853 C11.5883182,8.94495853 9.71049894,7.53727123 7.68664054,7.57863801 C5.08227676,7.61878813 2.64585793,9.12624237 1.30960025,11.4671156 C-1.44810458,16.2401124 0.608612611,23.2542155 3.25070316,27.1122764 C4.57235693,29.0029817 6.11672032,31.111471 8.13814473,31.0372541 C10.1157574,30.9569539 10.8544718,29.7780005 13.240994,29.7780005 C15.6056102,29.7780005 16.2992959,31.0372541 18.3608811,30.989804 C20.4833159,30.9569539 21.8195735,29.0917986 23.0949816,27.1852766 C24.6223071,25.0208205 25.2356713,22.8867811 25.2600111,22.7772808 C25.2113314,22.7602474 21.1392748,21.2053431 21.097897,16.5065632 Z M17.2035213,4.97496401 C18.2671727,3.6451436 18.9949341,1.83595517 18.7929134,-1.33226763e-15 C17.253418,0.0681335253 15.328136,1.06458633 14.2194559,2.36520666 C13.23856,3.51130989 12.3623254,5.38984852 12.588686,7.15645349 C14.3180323,7.28542052 16.0936242,6.28410104 17.2035213,4.97496401 L17.2035213,4.97496401 Z" id="Shape"></path>
            <g id="Group" transform="translate(36.069338, 14.334807)">
                <path d="M13.6729099,16.4311296 L10.9091201,16.4311296 L9.3951815,11.6751662 L4.13290627,11.6751662 L2.69077025,16.4311296 L-6.21724894e-15,16.4311296 L5.21481253,0.239684008 L8.43497448,0.239684008 L13.6729099,16.4311296 L13.6729099,16.4311296 Z M8.93880935,9.67982727 L7.56969287,5.45189869 C7.42487077,5.01998081 7.15226447,4.00284461 6.75309095,2.40170677 L6.70441126,2.40170677 C6.54376826,3.09034204 6.28698286,4.10747824 5.93527205,5.45189869 L4.58927843,9.67982727 L8.93880935,9.67982727 Z M27.0573925,10.4499794 C27.0573925,12.435585 26.5182649,14.0050895 25.4387926,15.157276 C24.4725006,16.1829289 23.2713291,16.695147 21.838929,16.695147 C20.2921317,16.695147 19.1798006,16.1439955 18.5043698,15.039259 L18.5043698,21.165193 L15.9097419,21.165193 L15.9097419,8.59334087 C15.9097419,7.34625403 15.8768831,6.06753376 15.8135995,4.7559634 L18.0954603,4.7559634 L18.2402824,6.60651861 L18.2889621,6.60651861 C19.1542437,5.21221468 20.4673786,4.51506272 22.2295836,4.51506272 C23.607219,4.51506272 24.7572769,5.05891425 25.6773231,6.14783398 C26.5961524,7.23918706 27.0573925,8.67242443 27.0573925,10.4499794 Z M24.414085,10.5448797 C24.414085,9.40850984 24.1585166,8.47167386 23.6449458,7.73315512 C23.0839123,6.96543629 22.330594,6.58096854 21.3862078,6.58096854 C20.7460698,6.58096854 20.1643475,6.79510247 19.6446917,7.217287 C19.1238189,7.64312153 18.7830611,8.19913976 18.623635,8.88777504 C18.5524641,9.14530958 18.5120222,9.41035827 18.5031528,9.67739393 L18.5031528,11.6252827 C18.5031528,12.4733018 18.7635892,13.1899205 19.2844619,13.7763555 C19.8053347,14.3603571 20.4819825,14.6535746 21.3144053,14.6535746 C22.2916502,14.6535746 23.0522705,14.2751902 23.5962661,13.5245048 C24.1414787,12.771386 24.414085,11.7785832 24.414085,10.5448797 L24.414085,10.5448797 Z M40.4893379,10.4499794 C40.4893379,12.435585 39.9502103,14.0050895 38.870738,15.157276 C37.903229,16.1829289 36.7032745,16.695147 35.2696574,16.695147 C33.72286,16.695147 32.610529,16.1439955 31.9350982,15.039259 L31.9350982,21.165193 L29.3404703,21.165193 L29.3404703,8.59334087 C29.3404703,7.34625403 29.3076115,6.06753376 29.2443279,4.7559634 L31.5261887,4.7559634 L31.6710108,6.60651861 L31.7196905,6.60651861 C32.5837551,5.21221468 33.89689,4.51506272 35.660312,4.51506272 C37.0367304,4.51506272 38.1867882,5.05891425 39.1092685,6.14783398 C40.0268808,7.23918706 40.4893379,8.67242443 40.4893379,10.4499794 L40.4893379,10.4499794 Z M37.8448134,10.5448797 C37.8448134,9.40850984 37.588028,8.47167386 37.0744572,7.73315512 C36.5134237,6.96543629 35.7625393,6.58096854 34.8181532,6.58096854 C34.1780152,6.58096854 33.5962928,6.79510247 33.0742031,7.217287 C32.5533303,7.64312153 32.2137894,8.19913976 32.0543634,8.88777504 C31.9752589,9.20897594 31.9326642,9.47056001 31.9326642,9.67739393 L31.9326642,11.6252827 C31.9326642,12.4733018 32.1943176,13.1899205 32.7127563,13.7763555 C33.2336291,14.3591404 33.9102769,14.6535746 34.7451337,14.6535746 C35.7235956,14.6535746 36.4842158,14.2751902 37.0269945,13.5245048 C37.5722071,12.771386 37.8448134,11.7785832 37.8448134,10.5448797 L37.8448134,10.5448797 Z M55.5070244,11.8893002 C55.5070244,13.2677874 55.0250954,14.3883405 54.0673224,15.253393 C53.0134069,16.197529 51.5420631,16.6708136 49.6557248,16.6708136 C47.9129917,16.6708136 46.5158844,16.3350127 45.4619689,15.6621941 L46.0619462,13.5001714 C47.1998341,14.1742066 48.4496853,14.5100075 49.8102829,14.5100075 C50.7887448,14.5100075 51.549365,14.2885736 52.0921437,13.8493557 C52.6361393,13.4089211 52.9111796,12.8200528 52.9111796,12.085184 C52.9111796,11.4269655 52.683602,10.875814 52.2369658,10.4268627 C51.7878956,9.97912811 51.0455302,9.56181027 50.0025677,9.17855919 C47.1669753,8.12127288 45.7479622,6.57488519 45.7479622,4.54061279 C45.7479622,3.21200905 46.249363,2.12430598 47.2497308,1.27385359 C48.2500986,0.424617863 49.5766203,-2.91609436e-15 51.2268621,-2.91609436e-15 C52.7006399,-2.91609436e-15 53.9285852,0.25671739 54.9033962,0.768935499 L54.2523052,2.88350812 C53.3346929,2.38710672 52.2990324,2.13890603 51.1404556,2.13890603 C50.2252773,2.13890603 49.5072518,2.36398999 48.993681,2.81172459 C48.5616486,3.21200905 48.34259,3.69989376 48.34259,4.27902872 C48.34259,4.91778052 48.5920735,5.44824868 49.0886064,5.86434985 C49.5194217,6.24760093 50.3055988,6.66491877 51.4422697,7.11265337 C52.836943,7.67475495 53.8616507,8.32932346 54.5176096,9.08122558 C55.1784365,9.8331277 55.5070244,10.7711803 55.5070244,11.8893002 Z M64.1075099,6.70263555 L61.2475777,6.70263555 L61.2475777,12.3711015 C61.2475777,13.8128556 61.7514125,14.5319076 62.7615162,14.5319076 C63.2251904,14.5319076 63.60976,14.4929742 63.9140081,14.4114573 L63.9858106,16.3812461 C63.4746738,16.5722633 62.801677,16.6683803 61.9680372,16.6683803 C60.9433296,16.6683803 60.1425485,16.3556961 59.5644771,15.7303276 C58.9888397,15.1049592 58.6991955,14.0574063 58.6991955,12.5828021 L58.6991955,6.69776887 L56.9954061,6.69776887 L56.9954061,4.75109672 L58.6991955,4.75109672 L58.6991955,2.61340736 L61.2475777,1.84447186 L61.2475777,4.75109672 L64.1075099,4.75109672 L64.1075099,6.70263555 L64.1075099,6.70263555 Z M76.9857237,10.4974296 C76.9857237,12.292018 76.4721529,13.7654054 75.4474453,14.917592 C74.3752749,16.1038454 72.9489598,16.695147 71.1709339,16.695147 C69.4549746,16.695147 68.0907261,16.1269621 67.0733204,14.9918089 C66.0559147,13.8542224 65.5472119,12.420985 65.5472119,10.6920968 C65.5472119,8.88290836 66.0729526,7.40100418 67.1207831,6.2488176 C68.1710476,5.09541435 69.5851928,4.51871273 71.3632187,4.51871273 C73.076744,4.51871273 74.4531624,5.08811433 75.494908,6.2244842 C76.4904078,7.32678731 76.9857237,8.75029132 76.9857237,10.4974296 Z M74.2961704,10.5570464 C74.2961704,9.48759339 74.0649419,8.57022414 73.6012677,7.80250531 C73.0572721,6.8754027 72.278397,6.41185139 71.2695103,6.41185139 C70.2301987,6.41185139 69.4330687,6.8754027 68.8902901,7.80250531 C68.425399,8.57022414 68.1941704,9.5034101 68.1941704,10.6057132 C68.1941704,11.6763829 68.425399,12.5961855 68.8902901,13.361471 C69.4513236,14.2885736 70.2338497,14.7521249 71.2476044,14.7521249 C72.2394532,14.7521249 73.0171114,14.2788402 73.5793619,13.3383542 C74.0564229,12.5523854 74.2961704,11.6289328 74.2961704,10.5570464 Z M85.4231321,7.03721982 C85.153272,6.98851293 84.8795344,6.96448579 84.6053132,6.96543629 C83.6925689,6.96543629 82.9867133,7.30853725 82.4901804,7.99960587 C82.0593651,8.60794091 81.8427404,9.37687641 81.8427404,10.3051957 L81.8427404,16.4311296 L79.2481126,16.4311296 L79.2481126,8.43274042 C79.2504265,7.20714399 79.225269,5.9816496 79.1726591,4.75718007 L81.432614,4.75718007 L81.5275394,6.99098636 L81.599342,6.99098636 C81.8743822,6.22326753 82.3051976,5.60398245 82.8966559,5.14043115 C83.4380391,4.73537456 84.0958366,4.51602454 84.7720412,4.51506272 C85.0117887,4.51506272 85.2284134,4.5320961 85.4206982,4.56251285 L85.4231321,7.03721982 L85.4231321,7.03721982 Z M97.0271549,10.0411783 C97.0337343,10.4355006 97.0019429,10.8295282 96.9322295,11.2176983 L89.148346,11.2176983 C89.1775538,12.3711015 89.5548214,13.254404 90.2777149,13.862739 C90.9336738,14.4053739 91.7819176,14.677908 92.8236631,14.677908 C93.9761549,14.677908 95.0276363,14.4954075 95.9732395,14.1267565 L96.3797149,15.9262115 C95.2746858,16.4080129 93.9700699,16.6476969 92.4646503,16.6476969 C90.6537656,16.6476969 89.2323184,16.1147954 88.1978749,15.0514257 C87.1658653,13.9868394 86.6486435,12.5560354 86.6486435,10.7638803 C86.6486435,9.00457537 87.1293555,7.5384879 88.0919965,6.36926794 C89.0996663,5.12096443 90.4614808,4.49681267 92.1750061,4.49681267 C93.8581066,4.49681267 95.1322977,5.12096443 95.9975793,6.36926794 C96.682746,7.35842073 97.0271549,8.58482418 97.0271549,10.0411783 L97.0271549,10.0411783 Z M94.5530093,9.36835972 C94.5712642,8.59820755 94.4008852,7.93512235 94.0491744,7.37423744 C93.6001042,6.6515354 92.9088525,6.29140106 91.9827213,6.29140106 C91.1344776,6.29140106 90.4432259,6.64301871 89.9174852,7.34868737 C89.4854529,7.90957228 89.2286675,8.58360751 89.1495629,9.36592638 L94.5530093,9.36835972 Z" id="Shape"></path>
            </g>
            <g id="Group" transform="translate(37.588144, 0.408801)">
                <path d="M1.86564938,8.44125711 C1.14397288,8.44125711 0.519655765,8.40597368 1.16643774e-14,8.34635684 L1.16643774e-14,0.51830146 C0.726798332,0.406057716 1.46125529,0.350733787 2.19667132,0.352776697 C5.1722178,0.352776697 6.54255127,1.81648845 6.54255127,4.2023785 C6.54255127,6.95448626 4.92395134,8.44125711 1.86564938,8.44125711 Z M2.30133267,1.35658715 C1.89972517,1.35658715 1.5577503,1.38092056 1.27419107,1.43932072 L1.27419107,7.39005415 C1.42753211,7.41438755 1.72204428,7.42533758 2.1358217,7.42533758 C4.08544356,7.42533758 5.19534065,6.31573446 5.19534065,4.23766194 C5.19534065,2.38467338 4.1913219,1.35658715 2.30133267,1.35658715 L2.30133267,1.35658715 Z M10.8129777,8.50087395 C9.13596212,8.50087395 8.04918788,7.24892042 8.04918788,5.5492323 C8.04918788,3.77776064 9.15908497,2.51485708 10.9079031,2.51485708 C12.5605788,2.51485708 13.6716929,3.70719378 13.6716929,5.4555487 C13.6716929,7.24892042 12.526503,8.50087395 10.8129777,8.50087395 Z M10.8616574,3.44682638 C9.94039411,3.44682638 9.35015278,4.3082288 9.35015278,5.5127322 C9.35015278,6.69411886 9.95256403,7.55552128 10.8494874,7.55552128 C11.7464109,7.55552128 12.3488221,6.63450202 12.3488221,5.48839879 C12.3488221,4.3203955 11.7585808,3.44682638 10.8616574,3.44682638 Z M23.2348193,2.63287408 L21.4397555,8.37069025 L20.2702258,8.37069025 L19.5266434,5.87894989 C19.3417565,5.26945347 19.1878133,4.65100109 19.0654033,4.02596134 L19.0410634,4.02596134 C18.947355,4.65132977 18.7696741,5.27791487 18.5810403,5.87894989 L17.7899952,8.37069025 L16.6082956,8.37069025 L14.9191101,2.63287408 L16.229811,2.63287408 L16.8796849,5.36064843 C17.033026,6.01035026 17.1620271,6.62355199 17.2691225,7.20268696 L17.2934623,7.20268696 C17.3871707,6.71966893 17.5405118,6.11620056 17.7656554,5.37281513 L18.5810403,2.63409075 L19.6203518,2.63409075 L20.400444,5.31441497 C20.5890778,5.9641168 20.7424189,6.60165193 20.8616841,7.20390363 L20.8957599,7.20390363 C20.9785154,6.61381863 21.1087336,5.98723353 21.2851975,5.31441497 L21.9825341,2.63409075 L23.2348193,2.63287408 L23.2348193,2.63287408 Z M29.8430882,8.37069025 L28.5676801,8.37069025 L28.5676801,5.07594763 C28.5676801,4.06124477 28.1782426,3.55267667 27.4103203,3.55267667 C26.654568,3.55267667 26.1349123,4.2023785 26.1349123,4.95793063 L26.1349123,8.37069025 L24.8595042,8.37069025 L24.8595042,4.27294537 C24.8595042,3.76559394 24.8473343,3.22174241 24.8120415,2.63165741 L25.9341085,2.63165741 L25.9937412,3.51739324 L26.0290339,3.51739324 C26.3722258,2.90419151 27.0683455,2.51485708 27.8484376,2.51485708 C29.0532601,2.51485708 29.8443052,3.43587635 29.8443052,4.9348139 L29.8430882,8.37069025 L29.8430882,8.37069025 Z M33.3601963,8.37069025 L32.0835712,8.37069025 L32.0835712,0 L33.3601963,0 L33.3601963,8.37069025 Z M38.0103243,8.50087395 C36.3345258,8.50087395 35.2465346,7.24892042 35.2465346,5.5492323 C35.2465346,3.77776064 36.3564316,2.51485708 38.1040328,2.51485708 C39.7579255,2.51485708 40.8678235,3.70719378 40.8678235,5.4555487 C40.8690395,7.24892042 39.7226327,8.50087395 38.0103243,8.50087395 Z M38.057787,3.44682638 C37.1365238,3.44682638 36.5462825,4.3082288 36.5462825,5.5127322 C36.5462825,6.69411886 37.1499107,7.55552128 38.0444001,7.55552128 C38.9425405,7.55552128 39.5437367,6.63450202 39.5437367,5.48839879 C39.5449518,4.3203955 38.9559275,3.44682638 38.057787,3.44682638 L38.057787,3.44682638 Z M45.8964352,8.37069025 L45.8039438,7.71003839 L45.769868,7.71003839 C45.3804305,8.24172322 44.812095,8.50087395 44.0916355,8.50087395 C43.0632769,8.50087395 42.3330814,7.78060525 42.3330814,6.81213586 C42.3330814,5.39593187 43.5610268,4.66349647 45.6871125,4.66349647 L45.6871125,4.55764617 C45.6871125,3.80209404 45.286722,3.42370964 44.495677,3.42370964 C43.9297755,3.42370964 43.4332426,3.56606005 42.9963423,3.84954418 L42.7371229,3.01125848 C43.2677316,2.68032422 43.9297755,2.51485708 44.7074336,2.51485708 C46.2067683,2.51485708 46.9637376,3.30569265 46.9637376,4.88858044 L46.9637376,7.00193639 C46.9637376,7.58107136 46.9892944,8.03002262 47.0464931,8.37190692 L45.8964352,8.37069025 L45.8964352,8.37069025 Z M45.7211883,5.5127322 C44.3046092,5.5127322 43.5938856,5.85583316 43.5938856,6.66978545 C43.5938856,7.27203715 43.9602003,7.56647131 44.4689031,7.56647131 C45.1175601,7.56647131 45.7211883,7.07128659 45.7211883,6.39846802 L45.7211883,5.5127322 L45.7211883,5.5127322 Z M53.157012,8.37069025 L53.0973794,7.44967098 L53.0620866,7.44967098 C52.6957719,8.14560628 52.0799737,8.50087395 51.2195601,8.50087395 C49.8358397,8.50087395 48.8111321,7.28420385 48.8111321,5.57234903 C48.8111321,3.77776064 49.8735665,2.51364041 51.3242214,2.51364041 C52.0921437,2.51364041 52.6361393,2.77279114 52.9428214,3.29352594 L52.9683782,3.29352594 L52.9683782,0 L54.2450033,0 L54.2450033,6.82430256 C54.2450033,7.37910412 54.2583902,7.89862225 54.292466,8.37069025 L53.157012,8.37069025 Z M52.9683782,4.99443074 C52.9683782,4.19142847 52.4365525,3.50644321 51.6248186,3.50644321 C50.6792155,3.50644321 50.1011441,4.34472891 50.1011441,5.5248989 C50.1011441,6.68195216 50.7011213,7.47400439 51.5992617,7.47400439 C52.4012597,7.47400439 52.9683782,6.77685242 52.9683782,5.95073343 L52.9683782,4.99443074 Z M62.3392199,8.50087395 C60.6634213,8.50087395 59.5766471,7.24892042 59.5766471,5.5492323 C59.5766471,3.77776064 60.6865442,2.51485708 62.4341453,2.51485708 C64.088038,2.51485708 65.197936,3.70719378 65.197936,5.4555487 C65.1991521,7.24892042 64.0539622,8.50087395 62.3392199,8.50087395 Z M62.3866826,3.44682638 C61.4666363,3.44682638 60.876395,4.3082288 60.876395,5.5127322 C60.876395,6.69411886 61.4788062,7.55552128 62.3745126,7.55552128 C63.2726531,7.55552128 63.8738548,6.63450202 63.8738548,5.48839879 C63.8762813,4.3203955 63.28604,3.44682638 62.3866826,3.44682638 Z M72.0569044,8.37069025 L70.7802793,8.37069025 L70.7802793,5.07594763 C70.7802793,4.06124477 70.3908417,3.55267667 69.6229195,3.55267667 C68.8671672,3.55267667 68.3487285,4.2023785 68.3487285,4.95793063 L68.3487285,8.37069025 L67.0721034,8.37069025 L67.0721034,4.27294537 C67.0721034,3.76559394 67.0599335,3.22174241 67.0246407,2.63165741 L68.1467077,2.63165741 L68.2063403,3.51739324 L68.2416331,3.51739324 C68.583608,2.90419151 69.2809446,2.51364041 70.0598198,2.51364041 C71.2646423,2.51364041 72.0569044,3.43465968 72.0569044,4.93359723 L72.0569044,8.37069025 Z M80.6379179,3.58917678 L79.2347257,3.58917678 L79.2347257,6.37535129 C79.2347257,7.08466996 79.4805581,7.43872095 79.9770911,7.43872095 C80.2022347,7.43872095 80.3908685,7.41438755 80.5429925,7.37910412 L80.5782853,8.34757351 C80.3312358,8.44247378 80.0002139,8.48992392 79.5888705,8.48992392 C78.5836347,8.48992392 77.9824405,7.93512235 77.9824405,6.48241826 L77.9824405,3.58917678 L77.1451497,3.58917678 L77.1451497,2.63287408 L77.9824405,2.63287408 L77.9824405,1.58167112 L79.2347257,1.20328672 L79.2347257,2.63165741 L80.6379179,2.63165741 L80.6379179,3.58917678 L80.6379179,3.58917678 Z M87.3897919,8.37069025 L86.1156008,8.37069025 L86.1156008,5.10028103 C86.1156008,4.07341147 85.7273802,3.55389334 84.958241,3.55389334 C84.2974142,3.55389334 83.681616,4.00284461 83.681616,4.91169717 L83.681616,8.37069025 L82.4074249,8.37069025 L82.4074249,0 L83.681616,0 L83.681616,3.44682638 L83.7071728,3.44682638 C84.1087803,2.82145795 84.6905027,2.51364041 85.4328681,2.51364041 C86.6474265,2.51364041 87.3897919,3.45777641 87.3897919,4.95793063 L87.3897919,8.37069025 L87.3897919,8.37069025 Z M94.3071768,5.80838303 L90.4797357,5.80838303 C90.5040755,6.89486942 91.223318,7.50807115 92.2881864,7.50807115 C92.8540879,7.50807115 93.3749606,7.41317088 93.8349838,7.23675372 L94.0333535,8.12248955 C93.4905749,8.35852355 92.8516539,8.47654054 92.1080715,8.47654054 C90.3130077,8.47654054 89.2505733,7.34260402 89.2505733,5.58451573 C89.2505733,3.82521078 90.3385645,2.50269038 91.9644664,2.50269038 C93.4309423,2.50269038 94.3509886,3.58917678 94.3509886,5.23046473 C94.3592357,5.42415744 94.3445296,5.6181454 94.3071768,5.80838303 L94.3071768,5.80838303 Z M93.1376471,4.89953047 C93.1376471,4.01379464 92.6910109,3.38842621 91.875626,3.38842621 C91.1429965,3.38842621 90.5637081,4.02596134 90.4809527,4.89953047 L93.1376471,4.89953047 L93.1376471,4.89953047 Z" id="Shape"></path>
            </g>
        </g>
    </g>
</svg>