<svg width="163" height="37" viewBox="0 0 163 37" fill="none" xmlns="http://www.w3.org/2000/svg">
<path d="M53.0286 5.31644C53.0286 6.40558 52.683 7.27294 51.9908 7.91995C51.2046 8.68929 50.1799 9.07421 48.9202 9.07421C47.7139 9.07421 46.6882 8.68422 45.8448 7.90318C44.9998 7.12266 44.5781 6.15481 44.5781 5.00002C44.5781 3.84471 44.9998 2.87738 45.8448 2.09634C46.6882 1.31582 47.7139 0.925299 48.9202 0.925299C49.5188 0.925299 50.0919 1.0345 50.636 1.25238C51.1801 1.47078 51.6165 1.76068 51.943 2.12377L51.2084 2.80978C50.6551 2.1928 49.8932 1.88457 48.9202 1.88457C48.0404 1.88457 47.2797 2.17304 46.6377 2.75037C45.9955 3.32835 45.6746 4.0778 45.6746 5.00002C45.6746 5.92224 45.9955 6.67169 46.6377 7.24967C47.2797 7.82699 48.0404 8.11547 48.9202 8.11547C49.8535 8.11547 50.6317 7.82543 51.2546 7.2446C51.659 6.86617 51.8929 6.34019 51.9554 5.66471H48.9202V4.7278H52.9704C53.0095 4.93151 53.0286 5.12703 53.0286 5.31644Z" fill="white"/>
<path d="M53.0292 5.31631H52.8899C52.8888 6.38062 52.5558 7.20729 51.893 7.82792L51.8914 7.82895L51.8909 7.82999C51.1296 8.57281 50.1512 8.94254 48.9209 8.9441C47.7467 8.94254 46.7639 8.56879 45.9433 7.81115C45.1245 7.05195 44.7196 6.12517 44.7181 4.99989C44.7196 3.87409 45.1245 2.94784 45.9433 2.18916C46.7639 1.431 47.7467 1.05673 48.9209 1.05517C49.5015 1.05517 50.0543 1.16086 50.5816 1.37159C51.1094 1.58388 51.5263 1.86208 51.837 2.20749L51.9437 2.12364L51.8452 2.03173L51.1105 2.71826L51.209 2.80965L51.3163 2.72645C50.7372 2.07892 49.9244 1.75249 48.9209 1.75444C48.0085 1.7534 47.2058 2.0576 46.5419 2.6569C45.8716 3.25815 45.5348 4.04972 45.5359 4.99989C45.5348 5.95006 45.8716 6.74164 46.5419 7.34289C47.2058 7.94219 48.0085 8.24639 48.9209 8.24535C49.8851 8.24691 50.7068 7.94166 51.3537 7.33638C51.7859 6.93208 52.0307 6.37205 52.095 5.67577L52.1079 5.53459H49.0602V4.85767H52.971V4.72767L52.8338 4.75055C52.872 4.94763 52.8899 5.13496 52.8899 5.31631H53.0292H53.1685C53.1685 5.11871 53.1489 4.91565 53.1081 4.7044L53.0875 4.59767H48.7816V5.66459V5.79459H51.9561V5.66459L51.8173 5.65341C51.7559 6.30757 51.5327 6.80013 51.1568 7.15256C50.5582 7.70909 49.8237 7.98379 48.9209 7.98535C48.0736 7.98431 47.3549 7.71209 46.7351 7.15608C46.1214 6.60201 45.816 5.89468 45.8145 4.99989C45.816 4.1051 46.1214 3.39777 46.7351 2.84371C47.3549 2.2877 48.0736 2.01548 48.9209 2.01444C49.8628 2.01652 50.5741 2.30694 51.1024 2.8935L51.2004 3.00218L52.0422 2.21555L52.1324 2.13131L52.0502 2.04031C51.708 1.65954 51.2521 1.35729 50.6915 1.13291C50.13 0.907882 49.5374 0.795173 48.9209 0.795173C47.6825 0.794133 46.6138 1.20038 45.7469 2.0043C44.8769 2.80666 44.4383 3.8152 44.4395 4.99989C44.4383 6.18406 44.8769 7.19312 45.7475 7.99601C46.6138 8.79941 47.6825 9.20514 48.9209 9.2041C50.2105 9.20514 51.2803 8.80539 52.0922 8.00966L51.9915 7.91983L52.0899 8.01174C52.8115 7.33886 53.1695 6.42989 53.1685 5.31631H53.0292Z" fill="white"/>
<path d="M59.4496 2.05764H55.6433V4.53076H59.0758V5.46806H55.6433V7.94118H59.4496V8.89941H54.5703V1.09941H59.4496V2.05764Z" fill="white"/>
<path d="M59.4502 2.05801V1.92801H55.5047V4.66113H58.9372V5.33804L55.5047 5.33843V8.07155H59.3109V8.76978H54.7102V1.22978H59.3109V2.05801H59.4502V1.92801V2.05801H59.5895V1.09978V0.969779H54.4316V9.02978H59.5895V7.94155V7.81155H55.7833V5.59843H59.2158V4.53113V4.40113H55.7833V2.18801H59.5895V2.05801H59.4502Z" fill="white"/>
<path d="M63.9775 8.89941H62.9027V2.05764H60.5684V1.09941H66.3118V2.05764H63.9775V8.89941Z" fill="white"/>
<path d="M63.9781 8.89978V8.76978H63.0427V1.92801H60.7083V1.22978H66.1732V1.92801H63.8388V8.89978H63.9781V8.76978V8.89978H64.1174V2.18801H66.4518V1.09978V0.969779H60.4297V2.05801V2.18801H62.7641V9.02978H63.9781H64.1174V8.89978H63.9781Z" fill="white"/>
<path d="M70.4688 8.89941V1.09941H71.5423V8.89941H70.4688Z" fill="white"/>
<path d="M70.4694 8.89978H70.6087V1.22978H71.4037V8.76978H70.4694V8.89978H70.6087H70.4694V9.02978H71.543H71.6823V0.969779H70.4694H70.3301V9.02978H70.4694V8.89978Z" fill="white"/>
<path d="M76.3054 8.89941H75.2307V2.05764H72.8965V1.09941H78.6398V2.05764H76.3054V8.89941Z" fill="white"/>
<path d="M76.3061 8.89978V8.76978H75.3707V1.92801H73.0364V1.22978H78.5012V1.92801H76.1668V8.89978H76.3061V8.76978V8.89978H76.4454V2.18801H78.7798V1.09978V0.969779H72.7578V2.05801V2.18801H75.0921V9.02978H76.3061H76.4454V8.89978H76.3061Z" fill="white"/>
<path d="M84.1765 7.23901C84.7951 7.82348 85.5521 8.11547 86.4472 8.11547C87.3424 8.11547 88.0998 7.82348 88.7174 7.23901C89.3366 6.65453 89.6468 5.90742 89.6468 5.00002C89.6468 4.09262 89.3366 3.34551 88.7174 2.76103C88.0998 2.17655 87.3424 1.88457 86.4472 1.88457C85.5521 1.88457 84.7951 2.17655 84.1765 2.76103C83.5589 3.34551 83.2488 4.09262 83.2488 5.00002C83.2488 5.90742 83.5589 6.65453 84.1765 7.23901ZM89.5118 7.892C88.6901 8.68058 87.6682 9.07421 86.4472 9.07421C85.225 9.07421 84.2037 8.68058 83.3838 7.892C82.5615 7.10433 82.1523 6.14012 82.1523 5.00002C82.1523 3.85992 82.5615 2.89558 83.3838 2.10804C84.2037 1.31933 85.225 0.925299 86.4472 0.925299C87.6618 0.925299 88.6809 1.32141 89.5064 2.11311C90.3308 2.90481 90.7433 3.86707 90.7433 5.00002C90.7433 6.14012 90.3318 7.10433 89.5118 7.892Z" fill="white"/>
<path d="M84.1771 7.23889L84.0781 7.33028C84.7197 7.93816 85.5201 8.24691 86.4479 8.24535C87.375 8.24691 88.1766 7.93816 88.8171 7.33028C89.4629 6.72188 89.7877 5.93473 89.7867 4.9999C89.7877 4.06507 89.4629 3.27792 88.8171 2.66952C88.1766 2.06164 87.375 1.75289 86.4479 1.75445C85.5201 1.75289 84.7197 2.06164 84.0781 2.66952C83.4338 3.27792 83.1084 4.06507 83.1101 4.9999C83.1084 5.93473 83.4338 6.72188 84.0781 7.33028L84.1771 7.23889L84.2762 7.14749C83.6853 6.58628 83.3898 5.88039 83.3887 4.9999C83.3898 4.11941 83.6853 3.41351 84.2762 2.8523C84.8725 2.29122 85.5848 2.01601 86.4479 2.01445C87.3103 2.01601 88.0242 2.29122 88.619 2.8523C89.211 3.41351 89.5065 4.11941 89.5076 4.9999C89.5065 5.88039 89.211 6.58628 88.619 7.14749C88.0242 7.70857 87.3103 7.98379 86.4479 7.98535C85.5848 7.98379 84.8725 7.70857 84.2762 7.14749L84.1771 7.23889ZM89.5125 7.89188L89.4129 7.80153C88.6141 8.56528 87.6374 8.94254 86.4479 8.9441C85.2578 8.94254 84.2811 8.56528 83.4838 7.80153L83.4801 7.79749L83.4838 7.80153C82.6868 7.03518 82.2934 6.11101 82.2923 4.9999C82.2934 3.88879 82.6868 2.96462 83.4838 2.19827C84.2811 1.43452 85.2578 1.05674 86.4479 1.05518C87.6297 1.05674 88.6042 1.43608 89.4074 2.20386C90.2073 2.97372 90.6029 3.89646 90.6046 4.9999C90.6029 6.11101 90.2084 7.03518 89.4129 7.80153L89.5125 7.89188L89.6126 7.98223C90.4571 7.17285 90.8842 6.16886 90.8832 4.9999C90.8842 3.83757 90.4554 2.83565 89.6071 2.02264C88.7583 1.20649 87.695 0.793747 86.4479 0.795177C85.1942 0.793747 84.1277 1.20454 83.2842 2.01756V2.01705C82.4381 2.82695 82.0126 3.83094 82.0137 4.9999C82.0126 6.16886 82.4381 7.17285 83.2842 7.98275L83.288 7.98639L83.2842 7.98223C84.1277 8.79525 85.1942 9.20514 86.4479 9.2041C87.701 9.20514 88.7675 8.79525 89.6126 7.98223L89.5125 7.89188Z" fill="white"/>
<path d="M92.252 8.89941V1.09941H93.559L97.621 7.16729H97.6672L97.621 5.6641V1.09941H98.6957V8.89941H97.5747L93.325 2.53747H93.2787L93.325 4.04118V8.89941H92.252Z" fill="white"/>
<path d="M92.2526 8.89978H92.3919V1.22978H93.4823L97.5443 7.29766H97.6679H97.8109L97.7609 5.66252V1.22978H98.557V8.76978H97.6527L93.4029 2.40784H93.2794H93.1363L93.1863 4.04363V8.76978H92.2526V8.89978H92.3919H92.2526V9.02978H93.3256H93.4649V4.03947L93.4187 2.53433L93.2794 2.53784V2.66784H93.3256V2.53784L93.2075 2.607L97.498 9.02978H98.6963H98.8356V0.969779H97.6216H97.4823V5.66603L97.5286 7.17117L97.6679 7.16766V7.03766H97.6216V7.16766L97.7397 7.09863L93.6368 0.969779H92.2526H92.1133V9.02978H92.2526V8.89978Z" fill="white"/>
<path d="M135.937 30.9993H138.536V14.7477H135.937V30.9993ZM159.349 20.6019L156.37 27.6477H156.28L153.188 20.6019H150.388L155.025 30.4498L152.381 35.9276H155.094L162.24 20.6019H159.349ZM144.609 29.1534C143.756 29.1534 142.569 28.7563 142.569 27.7732C142.569 26.5188 144.049 26.038 145.325 26.038C146.468 26.038 147.004 26.2679 147.7 26.5819C147.498 28.087 146.109 29.1534 144.609 29.1534ZM144.922 20.2463C143.04 20.2463 141.091 21.0202 140.285 22.7347L142.591 23.6335C143.085 22.7347 144.003 22.4416 144.967 22.4416C146.311 22.4416 147.677 23.1947 147.7 24.5328V24.6999C147.229 24.449 146.222 24.0727 144.989 24.0727C142.502 24.0727 139.97 25.3478 139.97 27.7315C139.97 29.906 142.009 31.307 144.294 31.307C146.042 31.307 147.004 30.5752 147.61 29.7181H147.7V30.9724H150.208V24.7415C150.208 21.8566 147.902 20.2463 144.922 20.2463ZM128.858 22.5802H125.161V17.0096H128.858C130.801 17.0096 131.904 18.5111 131.904 19.7948C131.904 21.0543 130.801 22.5802 128.858 22.5802ZM128.791 14.7477H122.563V30.9993H125.161V24.8421H128.791C131.672 24.8421 134.504 22.8956 134.504 19.7948C134.504 16.6942 131.672 14.7477 128.791 14.7477ZM94.8283 29.1564C93.0326 29.1564 91.5291 27.7533 91.5291 25.8262C91.5291 23.8788 93.0326 22.4544 94.8283 22.4544C96.6011 22.4544 97.9925 23.8788 97.9925 25.8262C97.9925 27.7533 96.6011 29.1564 94.8283 29.1564ZM97.8129 21.5119H97.7231C97.1398 20.8628 96.0172 20.2764 94.6036 20.2764C91.6412 20.2764 88.926 22.7057 88.926 25.8262C88.926 28.9259 91.6412 31.3344 94.6036 31.3344C96.0172 31.3344 97.1398 30.7479 97.7231 30.0781H97.8129V30.8738C97.8129 32.9895 96.6011 34.1203 94.6487 34.1203C93.0554 34.1203 92.0679 33.0519 91.6635 32.1515L89.3972 33.0311C90.0481 34.4971 91.7762 36.2983 94.6487 36.2983C97.7008 36.2983 100.282 34.6225 100.282 30.5387V20.6115H97.8129V21.5119ZM102.077 30.9993H104.68V14.7472H102.077V30.9993ZM108.518 25.6378C108.45 23.5014 110.291 22.4127 111.614 22.4127C112.648 22.4127 113.522 22.894 113.813 23.5858L108.518 25.6378ZM116.597 23.7949C116.104 22.5589 114.599 20.2764 111.525 20.2764C108.473 20.2764 105.937 22.5173 105.937 25.8054C105.937 28.9051 108.45 31.3344 111.816 31.3344C114.532 31.3344 116.104 29.7846 116.754 28.8842L114.734 27.6273C114.061 28.549 113.141 29.1564 111.816 29.1564C110.492 29.1564 109.55 28.5908 108.944 27.4811L116.866 24.4231L116.597 23.7949ZM53.4824 21.9729V24.3184H59.4966C59.3171 25.6378 58.8458 26.6011 58.1276 27.2714C57.2527 28.0885 55.8836 28.9888 53.4824 28.9888C49.7794 28.9888 46.8846 26.2035 46.8846 22.7478C46.8846 19.2921 49.7794 16.5064 53.4824 16.5064C55.4798 16.5064 56.9381 17.2396 58.0155 18.1821L59.7883 16.5277C58.2849 15.187 56.2873 14.1608 53.4824 14.1608C48.4103 14.1608 44.1465 18.0145 44.1465 22.7478C44.1465 27.4811 48.4103 31.3344 53.4824 31.3344C56.2204 31.3344 58.2849 30.4971 59.9005 28.9259C61.5612 27.376 62.0776 25.198 62.0776 23.439C62.0776 22.894 62.0329 22.3919 61.9426 21.9729H53.4824ZM68.9153 29.1564C67.1196 29.1564 65.571 27.7741 65.571 25.8054C65.571 23.8157 67.1196 22.4544 68.9153 22.4544C70.7103 22.4544 72.2589 23.8157 72.2589 25.8054C72.2589 27.7741 70.7103 29.1564 68.9153 29.1564ZM68.9153 20.2764C65.6384 20.2764 62.9677 22.601 62.9677 25.8054C62.9677 28.9888 65.6384 31.3344 68.9153 31.3344C72.1915 31.3344 74.8621 28.9888 74.8621 25.8054C74.8621 22.601 72.1915 20.2764 68.9153 20.2764ZM81.8886 29.1564C80.0935 29.1564 78.5448 27.7741 78.5448 25.8054C78.5448 23.8157 80.0935 22.4544 81.8886 22.4544C83.6837 22.4544 85.2323 23.8157 85.2323 25.8054C85.2323 27.7741 83.6837 29.1564 81.8886 29.1564ZM81.8886 20.2764C78.6118 20.2764 75.9417 22.601 75.9417 25.8054C75.9417 28.9888 78.6118 31.3344 81.8886 31.3344C85.1649 31.3344 87.8356 28.9888 87.8356 25.8054C87.8356 22.601 85.1649 20.2764 81.8886 20.2764Z" fill="white"/>
<path d="M1.61537 34.1055L1.51187 34.013C1.1065 33.6128 0.867188 32.9912 0.867188 32.1864V32.3758V3.62501C0.867188 3.62241 0.867188 3.62046 0.867188 3.61839C0.867188 3.62086 0.867188 3.62293 0.867188 3.62553V3.81546C0.867188 2.94394 1.1462 2.28745 1.6137 1.89381L18.8727 18.0002L1.61537 34.1055ZM0.867188 3.61682C0.867188 3.5452 0.869277 3.47564 0.873177 3.40713C0.869277 3.47513 0.867188 3.5452 0.867188 3.61682ZM0.873177 3.40402C0.873177 3.40311 0.873176 3.40206 0.873594 3.40102C0.873176 3.40206 0.873177 3.40311 0.873177 3.40402ZM0.873594 3.39492C0.873594 3.3944 0.873594 3.39388 0.873594 3.39336C0.873594 3.39388 0.873594 3.3944 0.873594 3.39492Z" fill="url(#paint0_linear_899_5459)"/>
<path d="M24.6252 23.5615L24.7564 23.492L31.5722 19.8778C32.222 19.5331 32.6551 19.1151 32.8712 18.6729C32.6557 19.1151 32.2224 19.5336 31.5722 19.8784L24.7564 23.4925L24.6252 23.5615ZM24.6268 23.3711L18.873 18.0005L24.6263 12.6309L31.5722 16.3135C32.4542 16.7812 32.9494 17.3841 33.0322 18C33.0322 18.0005 33.0322 18.0016 33.0322 18.0025C32.9494 18.617 32.4542 19.2203 31.5722 19.6879L24.6268 23.3711Z" fill="url(#paint1_linear_899_5459)"/>
<path d="M2.84455 34.7192C2.36243 34.7192 1.94175 34.573 1.6137 34.2967L1.61426 34.2962C1.94231 34.5725 2.36355 34.7192 2.84567 34.7192C2.88746 34.7192 2.92994 34.7182 2.97299 34.7162C2.92939 34.7182 2.88634 34.7192 2.84455 34.7192ZM2.84511 34.5288C2.36299 34.5293 1.94231 34.3825 1.61426 34.1063V34.1059L18.8716 18.0006L24.6254 23.3711L4.40569 34.0926C3.84626 34.3886 3.31622 34.5288 2.84511 34.5288ZM1.60938 34.2932C1.57887 34.2674 1.54892 34.2399 1.51953 34.2115L1.60938 34.2932Z" fill="url(#paint2_linear_899_5459)"/>
<path d="M18.8723 18.001L1.61328 1.89463C1.94133 1.6189 2.36146 1.47265 2.84302 1.47265C3.31539 1.47265 3.84584 1.61331 4.40639 1.90984L24.6255 12.6313L18.8723 18.001ZM24.7556 12.51L4.40639 1.72004C3.84584 1.42338 3.31539 1.28272 2.84302 1.28272C2.84079 1.28272 2.83926 1.28272 2.83703 1.28272C2.83982 1.28272 2.84191 1.28272 2.84525 1.28272C3.3165 1.28272 3.8464 1.42286 4.40639 1.71952L24.7556 12.51Z" fill="url(#paint3_linear_899_5459)"/>
<path d="M2.97395 34.7158C3.41191 34.6924 3.89681 34.5518 4.40665 34.2821L24.6246 23.5612L4.40665 34.2821C3.89723 34.5523 3.41191 34.6924 2.97395 34.7158ZM1.61466 34.2963L1.61034 34.2928C1.61188 34.2938 1.61355 34.2953 1.61466 34.2963ZM1.5205 34.211L1.51172 34.203V34.2025C1.51506 34.2054 1.51771 34.2084 1.5205 34.211Z" fill="white"/>
<path d="M24.625 23.5615L24.7562 23.492L24.625 23.5615Z" fill="url(#paint4_linear_899_5459)"/>
<path d="M2.84663 34.7192C2.36451 34.7192 1.94327 34.5725 1.61522 34.2962L1.61466 34.2967C1.61355 34.2957 1.61188 34.2943 1.61034 34.2932L1.5205 34.2115C1.51771 34.2089 1.51506 34.2059 1.51172 34.2029L1.61522 34.1063C1.94327 34.3825 2.36396 34.5293 2.84607 34.5288C3.31719 34.5288 3.84722 34.3886 4.40665 34.0926L24.6263 23.3711L24.7559 23.492L24.6247 23.5616L4.40665 34.2826C3.89681 34.5522 3.41191 34.6928 2.97395 34.7162C2.93091 34.7182 2.88842 34.7192 2.84663 34.7192Z" fill="url(#paint5_linear_899_5459)"/>
<path d="M1.51187 34.2036C1.1065 33.8033 0.867188 33.1818 0.867188 32.377V32.3765C0.867188 33.1818 1.1065 33.8028 1.51187 34.2031V34.2036Z" fill="white"/>
<path d="M1.51187 34.2026C1.1065 33.8024 0.867188 33.1814 0.867188 32.376V32.1866C0.867188 32.9914 1.1065 33.613 1.51187 34.0132L1.61537 34.1057L1.51187 34.2026Z" fill="url(#paint6_linear_899_5459)"/>
<path d="M1.51172 34.2026L1.61522 34.1057V34.106L1.51172 34.2026Z" fill="url(#paint7_linear_899_5459)"/>
<path d="M32.8711 18.6733C32.9782 18.4539 33.0321 18.2285 33.0321 18.0029C33.0321 18.0025 33.0321 18.002 33.0321 18.002C33.0321 18.228 32.9782 18.4534 32.8711 18.6733Z" fill="white"/>
<path d="M24.7565 23.4917L24.627 23.3708L31.5723 19.6876C32.4544 19.22 32.9496 18.6167 33.0323 18.0022C33.0323 18.2277 32.9784 18.4532 32.8713 18.6726C32.6552 19.1149 32.2221 19.5328 31.5723 19.8776L24.7565 23.4917Z" fill="url(#paint8_linear_899_5459)"/>
<path d="M33.0322 18.001V18.0005C33.0317 17.3204 32.5447 16.6405 31.5722 16.1246L24.7564 12.5104H24.7559L24.7564 12.51L31.5722 16.124C32.5458 16.64 33.0333 17.3209 33.0322 18.001Z" fill="white"/>
<path d="M33.0309 18.001C32.9482 17.385 32.453 16.7822 31.5709 16.3145L24.625 12.6318L24.7545 12.511H24.7551L31.5709 16.1251C32.5434 16.641 33.0304 17.3209 33.0309 18.001Z" fill="url(#paint9_linear_899_5459)"/>
<path d="M0.867188 3.61914C0.867188 3.61862 0.867188 3.6181 0.867188 3.61758C0.867188 3.6181 0.867188 3.61862 0.867188 3.61914ZM0.873177 3.40789C0.873177 3.40685 0.873177 3.40581 0.873177 3.40477C0.873177 3.40581 0.873177 3.40685 0.873177 3.40789ZM0.873594 3.40178C0.873594 3.3997 0.873594 3.39775 0.873594 3.39567C0.873594 3.39775 0.873594 3.3997 0.873594 3.40178ZM0.873594 3.39411C0.954249 2.05862 1.73238 1.2872 2.83313 1.28265C2.35588 1.28525 1.94021 1.4315 1.61481 1.70515V1.70463L1.61091 1.70826C1.57664 1.73713 1.54404 1.76768 1.51187 1.79914C1.1462 2.16015 0.915523 2.70095 0.873594 3.39411Z" fill="white"/>
<path d="M0.867188 3.8164V3.62647C0.867188 3.62387 0.867188 3.62179 0.867188 3.61932C0.867188 3.6188 0.867188 3.61828 0.867188 3.61776C0.867188 3.54613 0.869277 3.47606 0.873177 3.40807C0.873177 3.40703 0.873177 3.40599 0.873177 3.40495C0.873177 3.40404 0.873176 3.403 0.873594 3.40196C0.873594 3.39988 0.873594 3.39793 0.873594 3.39585C0.873594 3.39533 0.873594 3.39481 0.873594 3.39429C0.915523 2.70113 1.1462 2.16033 1.51187 1.79932L1.6137 1.89474C1.1462 2.28838 0.867188 2.94488 0.867188 3.8164ZM1.61091 1.70845L1.61481 1.70481C1.6137 1.70637 1.61202 1.70741 1.61091 1.70845Z" fill="url(#paint10_linear_899_5459)"/>
<path d="M24.6258 12.6309L4.40665 1.90937C3.84611 1.61284 3.31565 1.47218 2.84329 1.47218C2.36173 1.47218 1.9416 1.61843 1.61355 1.89416L1.51172 1.79874C1.5439 1.76728 1.57649 1.73673 1.61076 1.70787C1.61188 1.70683 1.61355 1.70579 1.61466 1.70475C1.94007 1.4311 2.35574 1.28485 2.83298 1.28225C2.83409 1.28225 2.83563 1.28225 2.8373 1.28225C2.83953 1.28225 2.84106 1.28225 2.84329 1.28225C3.31565 1.28225 3.84611 1.42291 4.40665 1.71957L24.7559 12.5096L24.7553 12.51L24.6258 12.6309Z" fill="url(#paint11_linear_899_5459)"/>
<defs>
<linearGradient id="paint0_linear_899_5459" x1="17.3423" y1="3.32173" x2="-4.42294" y2="26.6441" gradientUnits="userSpaceOnUse">
<stop stop-color="#00A0FF"/>
<stop offset="0.00657445" stop-color="#00A1FF"/>
<stop offset="0.2601" stop-color="#00BEFF"/>
<stop offset="0.5122" stop-color="#00D2FF"/>
<stop offset="0.7604" stop-color="#00DFFF"/>
<stop offset="1" stop-color="#00E3FF"/>
</linearGradient>
<linearGradient id="paint1_linear_899_5459" x1="34.1069" y1="18.0013" x2="0.40048" y2="18.0013" gradientUnits="userSpaceOnUse">
<stop stop-color="#FFE000"/>
<stop offset="0.4087" stop-color="#FFBD00"/>
<stop offset="0.7754" stop-color="#FFA500"/>
<stop offset="1" stop-color="#FF9C00"/>
</linearGradient>
<linearGradient id="paint2_linear_899_5459" x1="21.5581" y1="20.9845" x2="-7.95721" y2="52.6113" gradientUnits="userSpaceOnUse">
<stop stop-color="#FF3A44"/>
<stop offset="1" stop-color="#C31162"/>
</linearGradient>
<linearGradient id="paint3_linear_899_5459" x1="-2.86006" y1="-7.771" x2="10.3197" y2="6.35164" gradientUnits="userSpaceOnUse">
<stop stop-color="#32A071"/>
<stop offset="0.0685" stop-color="#2DA771"/>
<stop offset="0.4762" stop-color="#15CF74"/>
<stop offset="0.8009" stop-color="#06E775"/>
<stop offset="1" stop-color="#00F076"/>
</linearGradient>
<linearGradient id="paint4_linear_899_5459" x1="34.1064" y1="18.0012" x2="0.401259" y2="18.0012" gradientUnits="userSpaceOnUse">
<stop stop-color="#CCB300"/>
<stop offset="0.4087" stop-color="#CC9700"/>
<stop offset="0.7754" stop-color="#CC8400"/>
<stop offset="1" stop-color="#CC7D00"/>
</linearGradient>
<linearGradient id="paint5_linear_899_5459" x1="21.5591" y1="20.9845" x2="-7.95624" y2="52.6113" gradientUnits="userSpaceOnUse">
<stop stop-color="#CC2E36"/>
<stop offset="1" stop-color="#9C0E4E"/>
</linearGradient>
<linearGradient id="paint6_linear_899_5459" x1="17.3423" y1="3.32191" x2="-4.42295" y2="26.6442" gradientUnits="userSpaceOnUse">
<stop stop-color="#008DE0"/>
<stop offset="0.00657445" stop-color="#008DE0"/>
<stop offset="0.2601" stop-color="#00A7E0"/>
<stop offset="0.5122" stop-color="#00B8E0"/>
<stop offset="0.7604" stop-color="#00C4E0"/>
<stop offset="1" stop-color="#00C7E0"/>
</linearGradient>
<linearGradient id="paint7_linear_899_5459" x1="21.5593" y1="20.9849" x2="-7.95448" y2="52.6119" gradientUnits="userSpaceOnUse">
<stop stop-color="#E0333C"/>
<stop offset="1" stop-color="#AB0F56"/>
</linearGradient>
<linearGradient id="paint8_linear_899_5459" x1="34.107" y1="18.001" x2="0.400592" y2="18.001" gradientUnits="userSpaceOnUse">
<stop stop-color="#E0C500"/>
<stop offset="0.4087" stop-color="#E0A600"/>
<stop offset="0.7754" stop-color="#E09100"/>
<stop offset="1" stop-color="#E08900"/>
</linearGradient>
<linearGradient id="paint9_linear_899_5459" x1="34.1056" y1="18.0023" x2="0.39921" y2="18.0023" gradientUnits="userSpaceOnUse">
<stop stop-color="#FFE840"/>
<stop offset="0.4087" stop-color="#FFCE40"/>
<stop offset="0.7754" stop-color="#FFBC40"/>
<stop offset="1" stop-color="#FFB540"/>
</linearGradient>
<linearGradient id="paint10_linear_899_5459" x1="17.3423" y1="3.32266" x2="-4.42296" y2="26.645" gradientUnits="userSpaceOnUse">
<stop stop-color="#40B8FF"/>
<stop offset="0.00657445" stop-color="#40B9FF"/>
<stop offset="0.2601" stop-color="#40CEFF"/>
<stop offset="0.5122" stop-color="#40DDFF"/>
<stop offset="0.7604" stop-color="#40E7FF"/>
<stop offset="1" stop-color="#40EAFF"/>
</linearGradient>
<linearGradient id="paint11_linear_899_5459" x1="-2.85979" y1="-7.77147" x2="10.32" y2="6.35116" gradientUnits="userSpaceOnUse">
<stop stop-color="#65B895"/>
<stop offset="0.0685" stop-color="#62BD95"/>
<stop offset="0.4762" stop-color="#50DB97"/>
<stop offset="0.8009" stop-color="#44ED98"/>
<stop offset="1" stop-color="#40F498"/>
</linearGradient>
</defs>
</svg>
