<svg width="24" height="24" viewBox="0 0 24 24" fill="none" xmlns="http://www.w3.org/2000/svg">
<path d="M4 2H15L17.6313 4.44067L20 6.63768V22H4V2Z" fill="black"/>
<path d="M15 6.63772V2L20 6.63772H15Z" fill="url(#paint0_linear_516_9028)"/>
<path d="M7 11.0615H8.54189C8.92973 11.0615 9.22928 11.1561 9.44054 11.3453C9.65495 11.5345 9.76216 11.7977 9.76216 12.1351C9.76216 12.4788 9.65495 12.7468 9.44054 12.9392C9.22928 13.1315 8.92973 13.2277 8.54189 13.2277H7.70473V14.4385H7V11.0615ZM7.70473 12.6081H8.44257C8.65383 12.6081 8.80518 12.5703 8.89662 12.4946C8.99122 12.4158 9.03851 12.2991 9.03851 12.1446C9.03851 11.9901 8.99122 11.875 8.89662 11.7993C8.80518 11.7205 8.65383 11.6811 8.44257 11.6811H7.70473V12.6081Z" fill="white"/>
<path d="M12.656 11.0615H13.2993V14.4385H12.3864L11.1472 12.1493H11.0243V14.4385H10.381V11.0615H11.2939L12.533 13.3507H12.656V11.0615Z" fill="white"/>
<path d="M15.528 12.5608H17.0321V12.9581C17.0321 13.1631 17.0037 13.3554 16.947 13.5351C16.8902 13.7117 16.8051 13.8741 16.6915 14.0223C16.578 14.1705 16.4235 14.2872 16.228 14.3723C16.0325 14.4574 15.8071 14.5 15.5517 14.5C15.0346 14.5 14.6325 14.3392 14.3456 14.0176C14.0618 13.6959 13.9199 13.2734 13.9199 12.75C13.9199 12.2266 14.0634 11.8041 14.3503 11.4824C14.6373 11.1608 15.0393 11 15.5564 11C15.9348 11 16.2438 11.093 16.4834 11.2791C16.7231 11.4619 16.876 11.711 16.9422 12.0264H16.2091C16.1303 11.7615 15.9111 11.6291 15.5517 11.6291C15.2584 11.6291 15.033 11.7331 14.8753 11.9412C14.7208 12.1462 14.6436 12.4158 14.6436 12.75C14.6436 13.0842 14.7224 13.3554 14.8801 13.5635C15.0377 13.7716 15.2632 13.8757 15.5564 13.8757C15.8055 13.8757 15.9947 13.8095 16.124 13.677C16.2533 13.5446 16.3211 13.3649 16.3274 13.1378H15.528V12.5608Z" fill="white"/>
<defs>
<linearGradient id="paint0_linear_516_9028" x1="15" y1="4.31886" x2="20.1549" y2="4.31886" gradientUnits="userSpaceOnUse">
<stop stop-color="#B7E93B"/>
<stop offset="0.489583" stop-color="#3BD7E6"/>
<stop offset="1" stop-color="#0000FF"/>
</linearGradient>
</defs>
</svg>
