<svg width="24" height="24" viewBox="0 0 24 24" fill="none" xmlns="http://www.w3.org/2000/svg">
<path d="M4 2H15L17.6313 4.44067L20 6.63768V22H4V2Z" fill="black"/>
<path d="M15 6.63772V2L20 6.63772H15Z" fill="url(#paint0_linear_516_9023)"/>
<path d="M6.5 11H8.32633C8.78571 11 9.14052 11.112 9.39076 11.3361C9.64472 11.5602 9.77171 11.8721 9.77171 12.2717C9.77171 12.6788 9.64472 12.9963 9.39076 13.2241C9.14052 13.4519 8.78571 13.5658 8.32633 13.5658H7.33473V15H6.5V11ZM7.33473 12.8319H8.20868C8.45892 12.8319 8.63819 12.7871 8.7465 12.6975C8.85854 12.6041 8.91457 12.4659 8.91457 12.2829C8.91457 12.0999 8.85854 11.9636 8.7465 11.8739C8.63819 11.7806 8.45892 11.7339 8.20868 11.7339H7.33473V12.8319Z" fill="white"/>
<path d="M10.5047 11H12.1742C12.7755 11 13.2349 11.1793 13.5523 11.5378C13.8698 11.8964 14.0285 12.3838 14.0285 13C14.0285 13.6162 13.8698 14.1036 13.5523 14.4622C13.2349 14.8207 12.7755 15 12.1742 15H10.5047V11ZM11.3395 14.2549H12.0678C12.4487 14.2549 12.7269 14.141 12.9025 13.9132C13.0818 13.6816 13.1714 13.3772 13.1714 13C13.1714 12.6228 13.0818 12.3203 12.9025 12.0924C12.7269 11.8609 12.4487 11.7451 12.0678 11.7451H11.3395V14.2549Z" fill="white"/>
<path d="M17.719 11.7451H15.6013V12.6639H17.2708V13.3922H15.6013V15H14.7666V11H17.719V11.7451Z" fill="white"/>
<defs>
<linearGradient id="paint0_linear_516_9023" x1="15" y1="4.31886" x2="20.1549" y2="4.31886" gradientUnits="userSpaceOnUse">
<stop stop-color="#B7E93B"/>
<stop offset="0.489583" stop-color="#3BD7E6"/>
<stop offset="1" stop-color="#0000FF"/>
</linearGradient>
</defs>
</svg>
