<svg width="24" height="24" viewBox="0 0 24 24" fill="none" xmlns="http://www.w3.org/2000/svg">
<path d="M4 2H15L17.6313 4.44067L20 6.63768V22H4V2Z" fill="black"/>
<path d="M15 6.63772V2L20 6.63772H15Z" fill="url(#paint0_linear_516_9033)"/>
<path d="M8.55204 14.5C8.21251 14.5 7.93874 14.4023 7.73074 14.2068C7.52274 14.0081 7.41263 13.7275 7.40039 13.3649H8.07945C8.10392 13.7023 8.25992 13.8709 8.54745 13.8709C8.83804 13.8709 8.98333 13.6802 8.98333 13.2986V11.0615H9.66698V13.3034C9.66698 13.6818 9.56757 13.9766 9.36874 14.1878C9.17298 14.3959 8.90074 14.5 8.55204 14.5Z" fill="white"/>
<path d="M10.4172 11.0615H11.913C12.2892 11.0615 12.5798 11.1561 12.7848 11.3453C12.9928 11.5345 13.0968 11.7977 13.0968 12.1351C13.0968 12.4788 12.9928 12.7468 12.7848 12.9392C12.5798 13.1315 12.2892 13.2277 11.913 13.2277H11.1009V14.4385H10.4172V11.0615ZM11.1009 12.6081H11.8166C12.0216 12.6081 12.1684 12.5703 12.2571 12.4946C12.3489 12.4158 12.3948 12.2991 12.3948 12.1446C12.3948 11.9901 12.3489 11.875 12.2571 11.7993C12.1684 11.7205 12.0216 11.6811 11.8166 11.6811H11.1009V12.6081Z" fill="white"/>
<path d="M15.1011 12.5608H16.5602V12.9581C16.5602 13.1631 16.5326 13.3554 16.4776 13.5351C16.4225 13.7117 16.3399 13.8741 16.2298 14.0223C16.1197 14.1705 15.9698 14.2872 15.7802 14.3723C15.5905 14.4574 15.3718 14.5 15.124 14.5C14.6224 14.5 14.2324 14.3392 13.954 14.0176C13.6787 13.6959 13.5411 13.2734 13.5411 12.75C13.5411 12.2266 13.6803 11.8041 13.9586 11.4824C14.237 11.1608 14.627 11 15.1286 11C15.4957 11 15.7955 11.093 16.0279 11.2791C16.2604 11.4619 16.4087 11.711 16.473 12.0264H15.7618C15.6853 11.7615 15.4727 11.6291 15.124 11.6291C14.8396 11.6291 14.6209 11.7331 14.4679 11.9412C14.318 12.1462 14.2431 12.4158 14.2431 12.75C14.2431 13.0842 14.3196 13.3554 14.4725 13.5635C14.6255 13.7716 14.8442 13.8757 15.1286 13.8757C15.3703 13.8757 15.5538 13.8095 15.6792 13.677C15.8046 13.5446 15.8704 13.3649 15.8765 13.1378H15.1011V12.5608Z" fill="white"/>
<defs>
<linearGradient id="paint0_linear_516_9033" x1="15" y1="4.31886" x2="20.1549" y2="4.31886" gradientUnits="userSpaceOnUse">
<stop stop-color="#B7E93B"/>
<stop offset="0.489583" stop-color="#3BD7E6"/>
<stop offset="1" stop-color="#0000FF"/>
</linearGradient>
</defs>
</svg>
