<svg width="18" height="18" viewBox="0 0 18 18" fill="none" xmlns="http://www.w3.org/2000/svg">
<path fill-rule="evenodd" clip-rule="evenodd" d="M10.7057 2.46737C13.3734 3.16197 15.399 5.44742 15.7088 8.25L12.7124 8.25C12.5443 6.17761 11.8507 4.18831 10.7057 2.46737ZM7.29429 2.46737C6.14934 4.18831 5.45572 6.17761 5.28757 8.25L2.29119 8.25C2.601 5.44742 4.62661 3.16197 7.29429 2.46737ZM6.79319 8.25C6.98159 6.21513 7.74774 4.27646 9 2.66311C10.2523 4.27646 11.0184 6.21513 11.2068 8.25L6.79319 8.25ZM11.2068 9.75L6.79319 9.75C6.98159 11.7849 7.74774 13.7236 9 15.3369C10.2523 13.7236 11.0184 11.7849 11.2068 9.75ZM12.7124 9.75L15.7088 9.75C15.399 12.5526 13.3734 14.838 10.7057 15.5326C11.8507 13.8117 12.5443 11.8224 12.7124 9.75ZM7.29428 15.5326C6.14932 13.8117 5.45572 11.8224 5.28757 9.75L2.29119 9.75C2.601 12.5526 4.6266 14.838 7.29428 15.5326ZM8.99753 17.25C4.44232 17.2487 0.749997 13.5555 0.749997 9C0.749997 4.44365 4.44365 0.750001 9 0.750001C13.5563 0.75 17.25 4.44365 17.25 9C17.25 13.5555 13.5577 17.2487 9.00247 17.25C9.00164 17.25 9.00082 17.25 9 17.25C8.99918 17.25 8.99835 17.25 8.99753 17.25Z" fill="black"/>
</svg>
